<svg xmlns="http://www.w3.org/2000/svg" xmlns:xlink="http://www.w3.org/1999/xlink" width="63" height="63" viewBox="0 0 63 63">
  <defs>
    <clipPath id="clip-path">
      <rect id="Rectangle_13" data-name="Rectangle 13" width="63" height="63" transform="translate(258 373)" fill="#fff" stroke="#707070" stroke-width="1"/>
    </clipPath>
  </defs>
  <g id="Mask_Group_4" data-name="Mask Group 4" transform="translate(-258 -373)" clip-path="url(#clip-path)">
    <g id="share" transform="translate(258 373)">
      <g id="Group_18" data-name="Group 18">
        <path id="Path_24" data-name="Path 24" d="M51.246,40.041a11.4,11.4,0,0,0-8.966,4.4l-19.5-9.97a11.405,11.405,0,0,0,.439-2.971,11.311,11.311,0,0,0-.522-3.22l19.41-9.924a11.429,11.429,0,1,0-2.337-6.879,11.355,11.355,0,0,0,.442,2.979l-19.493,9.97a11.47,11.47,0,1,0,.169,13.944l19.4,9.924a11.339,11.339,0,0,0-.525,3.229A11.48,11.48,0,1,0,51.246,40.041Z" fill="#010002"/>
      </g>
    </g>
  </g>
</svg>
