<svg xmlns="http://www.w3.org/2000/svg" xmlns:xlink="http://www.w3.org/1999/xlink" width="63" height="63" viewBox="0 0 63 63">
  <defs>
    <clipPath id="clip-path">
      <rect id="Rectangle_10" data-name="Rectangle 10" width="63" height="63" transform="translate(39 373)" fill="#fff" stroke="#707070" stroke-width="1"/>
    </clipPath>
  </defs>
  <g id="Mask_Group_1" data-name="Mask Group 1" transform="translate(-39 -373)" clip-path="url(#clip-path)">
    <g id="twitter" transform="translate(39 373)">
      <g id="Group_11" data-name="Group 11">
        <path id="Path_9" data-name="Path 9" d="M63,11.966a26.928,26.928,0,0,1-7.442,2.04A12.843,12.843,0,0,0,61.24,6.867a25.811,25.811,0,0,1-8.19,3.126,12.915,12.915,0,0,0-22.341,8.832,13.3,13.3,0,0,0,.3,2.945A36.558,36.558,0,0,1,4.386,8.261,12.919,12.919,0,0,0,8.355,25.523,12.755,12.755,0,0,1,2.52,23.932v.142A12.975,12.975,0,0,0,12.868,36.764a12.891,12.891,0,0,1-3.386.425,11.42,11.42,0,0,1-2.445-.22,13.039,13.039,0,0,0,12.068,9A25.951,25.951,0,0,1,3.091,51.475,24.191,24.191,0,0,1,0,51.3a36.361,36.361,0,0,0,19.814,5.8c23.767,0,36.761-19.687,36.761-36.753,0-.571-.02-1.122-.047-1.669A25.766,25.766,0,0,0,63,11.966Z"/>
      </g>
    </g>
  </g>
</svg>
